<svg width="132.64" height="28.482" viewBox="0 0 35.094 7.536" xmlns="http://www.w3.org/2000/svg"><g style="stroke-width:.264583"><path d="M5.694 7.535q-.275-.01-.508-.254-.233-.243-.424-.624-.18-.381-.328-.826-.137-.444-.232-.867-.096-.424-.16-.741l.043-.021.042-.022q-.042-.053.022-.105.074-.053.307-.096.603-.106 1.185-.254.593-.148 1.1-.455.509-.317.858-.9.127-.2.127-.402 0-.338-.402-.497-.403-.17-.985-.212-.074.064-.137.127-.064.053-.117.106-.275.275-.656.688-.38.413-.794.9-.412.476-.762.995-.349.508-.571.994-.222.487-.222.9 0 .201.063.35.064.137.297.137v.084q-.064.032-.138.032-.18 0-.318-.137-.137-.149-.211-.339-.074-.201-.074-.35 0-.349.18-.804.18-.465.476-.973T4 2.963q.36-.508.72-.952.36-.445.656-.773-.656.01-1.227.074-.572.053-.815.085-.455.053-.932.18-.476.127-.889.307-.402.17-.656.37-.243.19-.243.381 0 .053.063.095.064.043.138.043.032.032.032.053 0 .053-.117.031-.116-.02-.296-.137-.17-.127-.307-.296Q0 2.254 0 2.127q0-.211.243-.391.254-.19.667-.339.423-.159.942-.265.519-.116 1.058-.18.381-.052.868-.074.487-.031 1.006-.031.476 0 .931.031l.032-.031Q5.683.783 5.683.698q0-.137.138-.264.148-.138.317-.244.17-.116.265-.19.095 0 .264.053.17.042.297.127.137.085.137.212 0 .053-.02.116-.043.095-.17.222-.117.127-.275.265.275.053.508.137.243.074.423.19.254.15.296.276.053.127.043.212-.01.084.042.095.18.296.18.582 0 .339-.243.603-.233.254-.593.424-.35.169-.72.264t-.635.117q-.17.01-.476.063-.307.053-.593.117v.01q0 .17.032.53.042.349.127.772.085.423.212.815.137.391.317.645.19.244.434.244.265 0 .561-.328.275-.307.487-.625.222-.317.286-.391.19-.265.264-.265.053 0-.01.18-.053.17-.201.392-.106.137-.244.338-.127.201-.275.413-.243.328-.53.53-.285.21-.634.2z"/><path d="M8.075 7.175q-.254 0-.508-.148-.243-.158-.307-.55-.01-.042-.01-.138 0-.317.169-.688.18-.38.455-.72.286-.338.603-.55.318-.211.603-.211.064.074.202.106.148.031.275.063.148.042.211.138.074.095.074.211 0 .138-.095.307-.095.16-.243.286-.244.19-.561.381-.318.18-.582.36-.254.17-.328.339-.021.052-.064.052-.074 0-.042-.084.106-.318.37-.54.265-.222.55-.413.297-.2.477-.423.137-.148.137-.275 0-.138-.148-.138-.127 0-.275.106-.423.286-.794.762-.37.466-.497.963-.032.127-.032.233 0 .201.106.286.106.074.254.074.127 0 .265-.042.137-.043.243-.106.159-.096.318-.244.158-.158.264-.285.244-.307.339-.307.053 0-.021.148-.064.148-.276.413-.2.254-.486.444-.276.19-.646.19z"/><path d="M9.99 7.154q-.169 0-.327-.116-.149-.106-.244-.254-.085-.148-.085-.254 0-.36.223-.762.222-.402.571-.752.36-.349.752-.571.391-.222.73-.222.137 0 .233.084.264-.55.571-1.11.318-.562.656-1.06.339-.507.657-.878.582-.687 1.206-.952.624-.265 1.302-.265.222 0 .487.074.275.064.37.149.032.031.032.053 0 .042-.053.063-.042.021-.095-.01-.138-.085-.276-.128-.127-.042-.317-.042-.455 0-.995.413-.54.402-1.09 1.026-.53.593-1.005 1.281-.477.688-.847 1.365-.37.678-.582 1.26-.212.582-.212.963 0 .233.064.317.074.085.158.085.085 0 .16-.042.084-.043.147-.096.201-.169.487-.508.286-.338.519-.666.17-.212.211-.212.053 0 0 .138-.052.137-.169.317-.137.201-.35.487-.21.286-.454.529-.297.275-.582.275-.254 0-.434-.2-.18-.202-.18-.562 0-.233.042-.434-.18.275-.402.561-.222.286-.455.476-.222.18-.423.18zm-.084-.233q.074 0 .19-.084.191-.138.424-.381.233-.244.465-.53.233-.296.413-.55.053-.158.117-.317.063-.159.127-.328-.074.02-.16.053-.084.031-.158.074-.286.158-.603.444-.318.286-.582.614-.254.318-.37.624-.032.075-.032.16 0 .221.169.221z"/><path d="M13.356 7.154q-.17 0-.286-.116-.105-.106-.158-.254-.053-.148-.053-.254 0-.36.222-.762t.571-.752q.36-.349.752-.571.391-.222.73-.222.244 0 .487.328.021.032.042.084.032.053.032.106 0 .096-.074.127-.01.01-.053-.063-.032-.085-.222-.085-.18 0-.476.17-.297.169-.625.444-.317.275-.582.593-.254.317-.37.613l-.043.149q-.02.074-.02.127 0 .095.063.095t.169-.074q.222-.159.466-.392.243-.243.465-.497.233-.265.392-.498.159-.232.2-.38.022-.085.244-.085.18 0 .307.084.127.074.064.17-.19.285-.37.603-.18.307-.265.624-.01.043-.021.074v.053q0 .106.084.106.096 0 .212-.095.222-.212.466-.54.254-.338.518-.667.095-.105.127-.105t.032.053q0 .042-.021.084-.043.106-.117.222-.074.106-.137.191-.053.074-.18.265-.127.19-.296.402-.17.211-.35.37-.18.148-.338.148-.223 0-.36-.137-.127-.148-.127-.265 0-.148.01-.2.022-.107.064-.255.053-.148.095-.286-.085.117-.254.328-.17.212-.37.434-.19.212-.37.36t-.276.148zm7.059.223q-.455 0-.889-.149-.434-.137-.815-.465-.074-.064-.148-.17-.063-.105-.18-.211-.116-.127-.254-.244-.137-.116-.233-.243-.042-.074-.074-.244-.02-.18-.01-.317.053-.497.349-1.027.307-.54.783-1.047.487-.519 1.08-.974.592-.466 1.227-.826.635-.36 1.239-.571.338-.116.698-.18.36-.063.677-.063.403 0 .678.116.275.106.285.35.202.264.202.624 0 .455-.297.846-.296.37-.582.656-.286.286-.645.54-.36.244-.89.519-.052.042-.116.042-.074 0-.074-.063 0-.032.042-.074.657-.318 1.08-.72.423-.402.645-.794.117-.212.233-.466.117-.254.117-.455 0-.18-.138-.296-.127-.116-.466-.116-.645 0-1.354.254-.71.254-1.397.698-.678.445-1.238 1.027-.561.571-.921 1.217-.36.645-.424 1.291-.01.042-.01.085v.084q0 .55.36.773.37.222.92.222.487 0 1.059-.127.571-.137 1.122-.328.56-.201 1.005-.402.445-.201.677-.35.138-.084.212-.116.085-.042.127-.042.032 0 .032.021 0 .064-.159.222-.233.223-.571.466-.329.233-.667.402-.519.254-1.111.434-.593.19-1.186.19zm4.615-.18q-.35 0-.583-.244-.222-.243-.222-.645 0-.339.159-.678.159-.349.35-.603.285-.37.655-.624.381-.254.71-.254.116 0 .211.137.106.127.275.148.043.011.085.032.053.01.106.095.137.233.137.498 0 .391-.254.846-.243.456-.645.815-.201.18-.455.328-.254.149-.53.149zm.02-.212q.255 0 .54-.201.286-.212.53-.519.254-.317.402-.645.158-.339.158-.593 0-.201-.095-.296-.095-.106-.243-.106-.265 0-.54.264-.275.265-.54.604-.232.296-.412.614-.17.317-.17.55 0 .17.117.254.116.074.254.074zm2.477.169q-.17 0-.328-.116-.148-.106-.243-.254-.085-.148-.085-.254 0-.36.222-.762t.572-.752q.36-.349.751-.571.392-.222.73-.222.138 0 .233.084.265-.55.572-1.11.317-.562.656-1.06.339-.507.656-.878.582-.687 1.207-.952.624-.265 1.301-.265.223 0 .487.074.275.064.37.149.032.031.032.053 0 .042-.053.063-.042.021-.095-.01-.137-.085-.275-.128-.127-.042-.318-.042-.455 0-.994.413-.54.402-1.09 1.026-.53.593-1.006 1.281t-.847 1.365q-.37.678-.582 1.26-.211.582-.211.963 0 .233.063.317.074.085.159.085t.159-.042q.084-.043.148-.096.201-.169.487-.508.285-.338.518-.666.17-.212.212-.212.053 0 0 .138-.053.137-.17.317-.137.201-.349.487-.211.286-.455.529-.296.275-.582.275-.254 0-.434-.2-.18-.202-.18-.562 0-.233.043-.434-.18.275-.402.561-.223.286-.456.476-.222.18-.423.18zm-.085-.233q.075 0 .191-.084.19-.138.423-.381.233-.244.466-.53.233-.296.413-.55.053-.158.116-.317.064-.159.127-.328-.074.02-.159.053-.084.031-.158.074-.286.158-.604.444-.317.286-.582.614-.254.318-.37.624-.032.075-.032.16 0 .221.17.221z"/><path d="M31.348 7.175q-.254 0-.508-.148-.244-.158-.307-.55-.01-.042-.01-.138 0-.317.169-.688.18-.38.455-.72.285-.338.603-.55.317-.211.603-.211.064.074.201.106.148.031.275.063.149.042.212.138.074.095.074.211 0 .138-.095.307-.095.16-.244.286-.243.19-.56.381-.318.18-.583.36-.254.17-.328.339-.02.052-.063.052-.074 0-.042-.084.105-.318.37-.54.265-.222.55-.413.297-.2.477-.423.137-.148.137-.275 0-.138-.148-.138-.127 0-.275.106-.424.286-.794.762-.37.466-.497.963-.032.127-.032.233 0 .201.106.286.106.074.254.074.127 0 .264-.042.138-.043.244-.106.158-.096.317-.244.159-.158.265-.285.243-.307.338-.307.053 0-.02.148-.064.148-.276.413-.2.254-.487.444-.275.19-.645.19z"/><path d="M33.443 7.038q-.264 0-.476-.117-.212-.127-.212-.391 0-.095.032-.201.042-.148.116-.19.085-.054.075.02-.022.106.042.191.063.085.17.138.126.052.21.052.213 0 .382-.158.18-.17.18-.36 0-.127-.074-.212-.127-.18-.286-.275-.148-.106-.233-.296l-.01.02q-.085.17-.191.318-.095.138-.18.265-.159.222-.307.423-.137.19-.36.445-.074.084-.137.084-.064 0-.064-.074 0-.042.032-.084.243-.297.402-.508.17-.223.37-.519.106-.148.212-.328.117-.19.17-.36-.01-.338.222-.582.233-.254.571-.38.339-.128.635-.107.074 0 .149.117.084.116.137.243.064.117.074.138v.02q0 .033-.032.054-.02.021-.074-.021-.031-.01-.105-.01-.16 0-.381.063-.223.053-.445.158-.212.106-.35.233-.137.127-.116.275.022.138.117.212.095.074.233.17.137.084.296.264.201.233.201.476 0 .212-.138.392-.137.17-.328.275-.222.127-.529.127z"/></g></svg>