<svg width="155.328" height="133.993" viewBox="0 0 41.097 35.452" xmlns="http://www.w3.org/2000/svg"><path d="M19.38 17.12q-.61 0-1.219-.356-.584-.381-.737-1.32-.025-.102-.025-.331 0-.762.406-1.651.432-.914 1.093-1.727.685-.813 1.447-1.321t1.448-.508q.153.178.483.254.355.076.66.152.356.102.508.33.178.23.178.509 0 .33-.229.736-.228.381-.584.686-.584.457-1.346.914-.762.432-1.397.864-.61.406-.787.813-.051.127-.153.127-.178 0-.101-.203.254-.762.889-1.296.635-.533 1.32-.99.712-.483 1.143-1.016.33-.356.33-.66 0-.331-.355-.331-.305 0-.66.254-1.016.686-1.905 1.829-.89 1.117-1.194 2.311-.076.305-.076.559 0 .483.254.686.254.178.61.178.304 0 .634-.102t.584-.254q.381-.229.762-.584.381-.381.635-.686.585-.737.813-.737.127 0-.05.356-.153.356-.661.99-.483.61-1.168 1.067-.66.458-1.55.458zM8.398 35.452q-.85 0-1.66-.276-.81-.257-1.521-.87-.138-.118-.277-.316-.118-.197-.336-.395-.217-.237-.474-.454-.257-.217-.434-.454-.08-.139-.139-.455-.04-.336-.02-.592.1-.929.653-1.917.572-1.007 1.461-1.956.91-.968 2.016-1.817 1.106-.87 2.291-1.541 1.186-.672 2.312-1.067.632-.217 1.303-.336.672-.118 1.265-.118.75 0 1.264.217.514.198.534.652.375.494.375 1.166 0 .85-.553 1.58-.553.692-1.087 1.225-.533.533-1.205 1.008-.672.454-1.66.968-.098.079-.217.079-.138 0-.138-.119 0-.06.08-.138 1.224-.593 2.014-1.344.79-.75 1.205-1.481.218-.395.435-.87.217-.474.217-.85 0-.335-.257-.552-.237-.218-.869-.218-1.205 0-2.529.475-1.323.474-2.607 1.303-1.265.83-2.312 1.917-1.047 1.067-1.718 2.272-.672 1.205-.79 2.41-.02.079-.02.158v.158q0 1.027.671 1.442.692.415 1.719.415.909 0 1.976-.237 1.066-.257 2.094-.613 1.047-.375 1.876-.75.83-.376 1.265-.652.257-.158.395-.217.158-.08.237-.08.06 0 .06.04 0 .119-.297.415-.435.415-1.067.87-.612.434-1.245.75-.968.474-2.074.81-1.106.355-2.213.355zm8.612-.335q-.651 0-1.086-.455-.414-.454-.414-1.205 0-.632.296-1.264.296-.652.652-1.126.533-.692 1.225-1.166.71-.474 1.323-.474.218 0 .395.257.198.237.514.276.079.02.158.06.099.02.198.177.256.435.256.929 0 .73-.474 1.58-.454.85-1.205 1.522-.375.335-.85.612-.473.277-.987.277zm.04-.396q.475 0 1.008-.375.533-.395.988-.968.474-.593.75-1.205.297-.632.297-1.106 0-.376-.178-.553-.178-.198-.454-.198-.494 0-1.008.494t-1.007 1.126q-.435.553-.77 1.146-.317.592-.317 1.027 0 .316.217.474.218.138.474.138z"/><path d="M13.665 17.983c-.44-.017-.846-.22-1.219-.61-.373-.389-.711-.888-1.016-1.498-.288-.61-.55-1.27-.787-1.981a27.368 27.368 0 0 1-.56-2.083c-.152-.677-.177-1.88-.177-1.88-.068-.084-.05-.169.05-.254.12-.084.365-.16.737-.228.966-.17 1.914-.373 2.845-.61a9.56 9.56 0 0 0 2.642-1.092c.813-.508 1.498-1.228 2.057-2.159.203-.322.305-.643.305-.965 0-.542-.322-.94-.965-1.194-.644-.27-1.431-.44-2.362-.508-1.776-.05 0 0-2.312-.05a30.87 30.87 0 0 0-2.946.177c-.915.085-1.567.152-1.956.203-.728.085-1.473.229-2.235.432-.762.203-1.473.449-2.134.737-.643.27-1.168.567-1.575.889-.39.304-.584.61-.584.914 0 .085.051.16.153.229a.584.584 0 0 0 .33.101c.05.051.076.093.076.127 0 .085-.093.11-.28.076-.186-.033-.423-.144-.71-.33a4.175 4.175 0 0 1-.737-.711C.102 5.445 0 5.207 0 5.004c0-.339.195-.652.584-.94.407-.305.94-.576 1.6-.813a15.072 15.072 0 0 1 2.261-.635c.83-.186 1.676-.33 2.54-.432.61-.084 1.304-.144 2.083-.177a36.937 36.937 0 0 1 2.413-.077c.762 0 1.507.026 2.235.077 0 0 .662.023 2.21.279.44.085.846.195 1.219.33.39.119.728.271 1.016.457.406.237.643.458.711.66.085.204.119.373.102.509-.017.135.017.211.101.228.288.475.432.94.432 1.397 0 .542-.195 1.025-.584 1.448-.373.407-.847.745-1.422 1.016a9.205 9.205 0 0 1-1.728.635c-.592.153-1.1.246-1.524.28-.27.017-.652.067-1.143.152-.49.085-.965.178-1.422.28v.025c0 .27.025.694.076 1.27.068.559.17 1.177.305 1.854.135.677.305 1.33.508 1.956.22.626.474 1.143.762 1.55.305.389.652.583 1.041.583.424 0 .872-.262 1.347-.787.44-.491.83-.99 1.168-1.499.356-.508.584-.82.686-.94.305-.423.516-.634.635-.634.084 0 .076.144-.026.431-.084.271-.245.585-.482.94-.17.22-.364.491-.584.813-.204.322-.424.652-.66.99a5.64 5.64 0 0 1-1.27 1.27c-.458.34-.966.5-1.525.483z"/><path d="M15.215 3.124a21.89 21.89 0 0 0-.61.559 68.185 68.185 0 0 0-3.48 3.81c-.66.762-1.27 1.558-1.829 2.388a15.872 15.872 0 0 0-1.371 2.387c-.356.78-.534 1.499-.534 2.16 0 .32.051.6.153.837.101.22.338.33.711.33v.204a.728.728 0 0 1-.33.076c-.288 0-.542-.11-.762-.33a2.532 2.532 0 0 1-.508-.813c-.119-.322-.178-.601-.178-.838 0-.559.144-1.202.432-1.93.288-.746.669-1.525 1.143-2.337.474-.813.99-1.618 1.55-2.413a44.667 44.667 0 0 1 1.726-2.286 45.429 45.429 0 0 1 1.575-1.855l.813-.863.076-.076a.487.487 0 0 1-.152-.356c0-.22.11-.432.33-.635.237-.22.491-.415.762-.584.27-.186.483-.339.635-.457.152 0 .364.042.635.127.27.067.508.169.711.304.22.136.33.305.33.508a.89.89 0 0 1-.05.28c-.068.152-.204.33-.407.533a8.04 8.04 0 0 1-.66.635"/><path style="fill:none;stroke:#00f;stroke-width:.065;stroke-linecap:butt;stroke-linejoin:miter;stroke-miterlimit:4;stroke-dasharray:none;stroke-opacity:1" d="m8.181 15.727-.59-.043-.536-.837-.112-1.329.687-1.881 1.513-2.669 1.425-1.82 2.515-3.042 1.76-1.89 1.23-1.479"/><path style="fill:none;stroke:#00f;stroke-width:.065;stroke-linecap:butt;stroke-linejoin:miter;stroke-miterlimit:4;stroke-dasharray:none;stroke-opacity:1" d="m1.915 6.668-.367-.087s-.475-.34-.543-.419c-.067-.078-.359-1-.359-1l1.211-1.128 3.837-.884 2.617-.426 2.911-.368 2.9.056 2.25.333 1.983.734.45.925.228 1.642-1.445 1.489-2.38 1.151-2.56.582-1.918.453.5 3.295 1.32 3.637 1.412.876 1.3-.393 1.27-1.57.93-1.353.335-.452m2.323.167 1.315-.8 1.18-.894.521-.657.213-.63-.477-.367-1.058-.118-1.366.647-1.228 1.384-.826 1.42-.387 1.43s.119 1.067.188 1.161c.07.094.84.359.84.359l1.254-.034.977-.773.784-.736.64-.778"/><path d="M27.967 11.245a5.688 5.688 0 0 0-.408.134c-.135.051-.262.11-.381.178-.457.254-.94.61-1.448 1.067a12.77 12.77 0 0 0-1.397 1.473c-.406.508-.703 1.008-.889 1.499a.957.957 0 0 0-.076.38c0 .356.135.534.406.534.119 0 .271-.068.458-.203.304-.22.643-.525 1.016-.915.372-.39.745-.812 1.117-1.27a35.16 35.16 0 0 0 1.015-1.35c.04-.016-.28 1.311-.305 1.357-.288.44-.634.908-.99 1.365a7.105 7.105 0 0 1-1.091 1.143c-.356.288-.695.432-1.016.432-.271 0-.534-.093-.788-.28a2.22 2.22 0 0 1-.584-.61c-.135-.236-.203-.44-.203-.609 0-.576.178-1.185.533-1.829a8.071 8.071 0 0 1 1.372-1.803 8.92 8.92 0 0 1 1.803-1.372c.627-.355 1.21-.533 1.753-.533a.89.89 0 0 1 .585.22"/><path d="M27.356 12.802c.084-.254.178-.508.28-.762.1-.254.202-.517.304-.788l.483-1.016c.423-.88.88-1.77 1.371-2.667a36.171 36.171 0 0 1 1.575-2.54 22.016 22.016 0 0 1 1.575-2.108c.931-1.1 1.896-1.863 2.895-2.286A7.944 7.944 0 0 1 38.964 0c.355 0 .745.06 1.168.178.44.101.923.6.838.635-.068.034-.144.025-.228-.026a2.877 2.877 0 0 0-.66-.304 2.44 2.44 0 0 0-.763-.102c-.728 0-1.524.33-2.387.99-.864.644-1.736 1.465-2.617 2.464a31.694 31.694 0 0 0-2.413 3.074 36.72 36.72 0 0 0-2.032 3.276c-.592 1.084-1.058 2.092-1.397 3.023-.338.931-.508 1.702-.508 2.311 0 .373.051.627.153.762.118.136.245.204.38.204a.756.756 0 0 0 .382-.102c.135-.068.254-.144.355-.229.322-.27.712-.677 1.169-1.219.457-.542.872-1.075 1.244-1.6.271-.339.44-.508.508-.508.085 0 .085.11 0 .33-.084.22-.22.474-.406.762-.22.322-.5.711-.838 1.169-.339.457-.703.88-1.092 1.27-.475.44-.94.66-1.397.66-.407 0-.754-.16-1.042-.483-.288-.321-.432-.77-.432-1.346 0-.372.034-.72.102-1.041z"/><path style="fill:none;stroke:#00f;stroke-width:.065;stroke-linecap:butt;stroke-linejoin:miter;stroke-opacity:1;stroke-miterlimit:4;stroke-dasharray:none" d="m28.07 10.59-1.352.28-1.438 1.17-1.258 1.23s-.624.924-.648.988c-.023.064-.394 1.15-.394 1.15l.078.97.707.435 1.063-.429.945-.987.623-.842.445-.604.207-.37M40.836.728l-.73-.375-1.113-.192-1.637.352-1.974 1.101-2.783 2.848-.92 1.36-1.504 2.474-1.443 2.564-.91 2.492-.363 1.638.03 1.195.428.443.724.183.717-.471.608-.582.67-.686.257-.374"/><path d="M32.055 17.069a.93.93 0 0 1-.686-.28 1.62 1.62 0 0 1-.381-.61 1.865 1.865 0 0 1-.127-.609c0-.576.178-1.185.533-1.829a8.071 8.071 0 0 1 1.372-1.803 8.92 8.92 0 0 1 1.803-1.372c.627-.355 1.211-.533 1.753-.533.39 0 .779.262 1.168.787.034.051.068.119.102.204a.49.49 0 0 1 .076.254c0 .152-.06.254-.178.304-.017.017-.059-.033-.127-.152-.05-.135-.228-.203-.533-.203-.288 0-.669.135-1.143.406s-.974.627-1.499 1.067c-.508.44-.973.914-1.397 1.422-.406.508-.702 1-.889 1.474l-.101.355c-.034.119-.051.22-.051.305 0 .152.05.229.152.229s.237-.06.407-.178c.355-.254.728-.567 1.117-.94.39-.39.762-.787 1.118-1.194.373-.423.686-.821.94-1.194.254-.372-.449 1.262-.381 1.042-.136.186-.339.449-.61.787a22.6 22.6 0 0 1-.889 1.042 8.374 8.374 0 0 1-.889.863c-.288.237-.508.356-.66.356z"/><path d="M35.484 12.98c.254-.373.415-.678.482-.915.034-.135.229-.203.585-.203a1.3 1.3 0 0 1 .736.203c.203.119.254.254.153.406-.305.458-.602.94-.89 1.448-.287.491-.499.99-.634 1.499a2.44 2.44 0 0 1-.051.178v.127c0 .169.068.254.203.254.152 0 .322-.077.508-.229.356-.339.728-.77 1.118-1.295a54.21 54.21 0 0 1 1.244-1.6c.153-.17.254-.255.305-.255.05 0 .076.043.076.127a.45.45 0 0 1-.05.204 3.244 3.244 0 0 1-.28.533c-.119.17-.229.322-.33.457-.085.119-.229.33-.432.635a13.6 13.6 0 0 1-.711.965c-.271.34-.55.635-.838.89-.288.236-.56.355-.813.355-.356 0-.644-.11-.864-.33-.203-.237-.305-.449-.305-.635 0-.237.009-.398.026-.483.034-.17.313-1.075.38-1.295"/><path style="fill:none;stroke:#00f;stroke-width:.065;stroke-linecap:butt;stroke-linejoin:miter;stroke-opacity:1;stroke-miterlimit:4;stroke-dasharray:none" d="m37.54 11.324-.358-.419-.618-.22-1.913.62-1.617 1.14-.751 1.139-.55.939-.37.826-.042.753.201.531.454.202.731-.373.67-.712.84-.862.521-.652.45-.604"/><path style="fill:none;stroke:#00f;stroke-width:.065;stroke-linecap:butt;stroke-linejoin:miter;stroke-opacity:1;stroke-miterlimit:4;stroke-dasharray:none" d="m36.75 12.127-.533 1.07-.603 1.359-.322.914v.708l.541.273.878-.383.666-.715.643-.882.59-.8.382-.522.213-.397"/><path style="fill:none;stroke:#0000f5;stroke-width:.065;stroke-linecap:butt;stroke-linejoin:miter;stroke-opacity:1;stroke-miterlimit:4;stroke-dasharray:none" d="m12.303 29.637.823-.405 1.058-.688 1.092-.991.852-1.09.475-1.333-.369-1.083-.704-.489-1.39.017-2.328.589-2.299 1.21-2.037 1.612L5.51 29.06l-.886 1.472-.447 1.177.123.977.59.919.363.585.605.411.675.3 1.263.228 1.45-.136 2.248-.631 1.654-.723 1.263-.774.738-.505"/><path style="fill:none;stroke:#00f;stroke-width:.065;stroke-linecap:butt;stroke-linejoin:miter;stroke-opacity:1;stroke-miterlimit:4;stroke-dasharray:none" d="m18.72 30.022-1.325.866-.982 1.295-.454 1.36.053.967.659.337.795.024.906-.494.897-.873.716-1.157.318-.854-.001-.88-.465-.421z"/><path d="M23.998 32.748a17.43 17.43 0 0 1-.793 1.094 5.55 5.55 0 0 1-.85.889c-.276.224-.54.336-.79.336-.21 0-.415-.073-.612-.218a1.727 1.727 0 0 1-.455-.474c-.105-.184-.158-.342-.158-.474 0-.448.138-.922.415-1.422.277-.5.632-.968 1.067-1.403a6.95 6.95 0 0 1 1.402-1.067c.488-.276.942-.415 1.364-.415a.63.63 0 0 1 .434.158c.023.033-.061.278-.267.762-.092.026-.3.088-.404.127a2.04 2.04 0 0 0-.297.139 6.274 6.274 0 0 0-1.126.83 9.907 9.907 0 0 0-1.086 1.145 4.37 4.37 0 0 0-.692 1.166.744.744 0 0 0-.06.296c0 .277.106.415.317.415.092 0 .21-.053.356-.158.237-.171.5-.408.79-.711.29-.303.58-.632.869-.988.29-.369.64-.781.864-1.097z"/><path d="M25.022 29.752a44.43 44.43 0 0 1 1.067-2.074 27.88 27.88 0 0 1 1.225-1.975c.421-.633.83-1.18 1.225-1.64.724-.856 1.475-1.449 2.252-1.778a6.167 6.167 0 0 1 2.43-.494c.276 0 .58.046.909.138.342.08.572.171.691.277.04.04.06.072.06.099 0 .052-.034.092-.1.118-.052.026-.111.02-.177-.02a2.237 2.237 0 0 0-.514-.237 1.898 1.898 0 0 0-.593-.079c-.566 0-1.185.257-1.857.77-.671.501-1.35 1.14-2.034 1.917a24.65 24.65 0 0 0-1.877 2.39 28.56 28.56 0 0 0-1.58 2.549 17.224 17.224 0 0 0-1.087 2.35c-.264.725-.395 1.325-.395 1.799 0 .29.04.487.118.592.092.106.191.158.296.158a.588.588 0 0 0 .297-.079c.105-.052.197-.112.276-.177.25-.211.554-.527.91-.949.355-.421.677-.836.967-1.244.21-.264.343-.395.395-.395.066 0 .066.085 0 .256a3.326 3.326 0 0 1-.316.593c-.171.25-.388.553-.652.909a8.81 8.81 0 0 1-.85.988c-.368.342-.73.513-1.086.513a1.05 1.05 0 0 1-.81-.375c-.224-.25-.336-.6-.336-1.047 0-.29.027-.56.08-.81m0 0c.065-.198.12-.528.308-1.074.07-.2.68-1.758.758-1.969"/><path style="fill:none;stroke:#00f;stroke-width:.065;stroke-linecap:butt;stroke-linejoin:miter;stroke-opacity:1;stroke-miterlimit:4;stroke-dasharray:none" d="m24.787 30.146-.694.022-1.098.549-1.014 1.067-.881 1.036-.352.739-.059.597.241.47.567.251.795-.32.434-.592.747-.875.387-.53.265-.38m10.608-9.869s-.51-.257-.559-.266c-.05-.01-.772-.107-.772-.107l-.935.123-.523.204-1.574.828-1.531 1.468-1.223 1.795-1.124 1.58-.892 1.8-.84 1.94-.407 1.175-.115 1.106.07.236.212.42.242.155.473.045.619-.28.553-.647.519-.69.579-.706"/><path d="M32.46 30.87c-.177.45-.414.87-.711 1.284-.25.368-.481.691-.692.968-.097.129-.566.684-.711.829a3.565 3.565 0 0 1-.593.455 2.053 2.053 0 0 1-.454.197 1.67 1.67 0 0 1-.494.08.805.805 0 0 1-.474-.14c-.132-.105-.198-.282-.198-.533 0-.131.02-.276.06-.434.157-.62.467-1.218.928-1.798.461-.593.955-1.067 1.482-1.422.184-.132.355-.198.513-.198.185 0 .277.086.277.257 0 .158-.086.33-.257.513-.224.277-.52.54-.889.79-.356.238-.698.494-1.027.771a2.21 2.21 0 0 0-.692 1.008c-.04.105-.013.158.08.158.052 0 .091-.033.118-.099.092-.21.296-.422.613-.632.329-.224.69-.448 1.086-.672.395-.237 1.383-1.047 1.501-1.244.119-.211.132-.85.04-.968-.08-.119-.211-.205-.396-.257a13.48 13.48 0 0 0-.513-.119c-.171-.04-.296-.105-.375-.197-.356 0-.731.131-1.126.395a5.42 5.42 0 0 0-1.126 1.027 6.583 6.583 0 0 0-.85 1.343c-.21.461-.316.89-.316 1.284 0 .119.007.205.02.257.079.488.27.83.572 1.028.317.184.633.276.949.276.46 0 .862-.118 1.205-.356.09-.06.175-.12.258-.186.247-.192.923-.999 1.014-1.14l.012-.017c.184-.25.376-.513.573-.79.241-.358.505-.712.711-1.126"/><path d="M34.987 28.869a2.909 2.909 0 0 0-1.046.203 2.716 2.716 0 0 0-1.066.71c-.29.304-.428.666-.415 1.088-.177.45-.088 1.006.118.592.105.237.25.421.435.553.197.119.375.29.533.514a.578.578 0 0 1 .139.395c0 .237-.112.46-.336.671a1.013 1.013 0 0 1-.711.297c-.106 0-.238-.033-.396-.099a.875.875 0 0 1-.316-.256.429.429 0 0 1-.079-.357c.014-.092-.033-.105-.138-.039-.092.053-.164.171-.217.356-.04.131-.06.256-.06.375 0 .33.132.573.395.731.264.145.56.217.89.217.382 0 .71-.078.987-.236a2.09 2.09 0 0 0 .613-.514c.17-.224.256-.468.256-.731 0-.303-.125-.6-.375-.89a2.575 2.575 0 0 0-.553-.493 9.956 9.956 0 0 1-.435-.316.592.592 0 0 1-.217-.395c-.026-.185.046-.356.217-.514.171-.158.389-.303.652-.435a4.26 4.26 0 0 1 .83-.296c.277-.079.514-.119.711-.119.092 0 .158.007.198.02.066.053.112.066.138.04.04-.026.06-.06.06-.099v-.04l-.139-.256a2.228 2.228 0 0 0-.257-.455c-.092-.145-.184-.217-.276-.217a2.22 2.22 0 0 0-.14-.005z"/><path style="fill:none;stroke:#00f;stroke-width:.065;stroke-linecap:butt;stroke-linejoin:miter;stroke-opacity:1;stroke-miterlimit:4;stroke-dasharray:none" d="m29.32 32.699.752-.49.775-.606.65-.528.256-.31-.031-.543-.483-.264-.754-.024-.933.574-.875.986-.599.988-.418.938.09.817.348.435.645.277.775-.147.768-.492.744-.815.618-.87.523-.817.286-.528m2.946-1.896-1.15.154-.736.326-.6.523-.23.668.27.685.7.508.479.601-.036.875-.627.441-.869.248-.656-.105-.282-.78"/></svg>