<svg width="500" height="500" viewBox="0 0 132.292 132.292" xmlns="http://www.w3.org/2000/svg"><g transform="translate(-35.166 -58.372)"><rect width="132.292" height="132.292" x="35.166" y="58.372" rx="5" ry="5"/><path d="M124.13 177.262q-3.853-.148-7.113-3.556-3.26-3.408-5.926-8.742-2.52-5.334-4.594-11.557-1.926-6.223-3.26-12.15-1.333-5.926-2.222-10.372l.593-.296.593-.296q-.593-.741.296-1.482 1.037-.74 4.297-1.333 8.445-1.482 16.594-3.556 8.298-2.075 15.41-6.372 7.112-4.445 12.001-12.594 1.778-2.815 1.778-5.63 0-4.741-5.63-6.964-5.63-2.37-13.78-2.963-1.037.889-1.926 1.778-.889.74-1.63 1.481-3.852 3.853-9.186 9.631-5.334 5.779-11.112 12.594-5.779 6.668-10.668 13.928-4.89 7.112-8.001 13.928-3.112 6.816-3.112 12.594 0 2.815.889 4.89.889 1.926 4.149 1.926v1.185q-.89.445-1.926.445-2.52 0-4.445-1.927-1.927-2.074-2.964-4.74-1.037-2.816-1.037-4.89 0-4.89 2.519-11.261 2.519-6.52 6.667-13.632 4.149-7.112 9.039-14.075 5.037-7.112 10.075-13.335 5.038-6.223 9.186-10.817-9.186.149-17.187 1.038-8.001.74-11.409 1.185-6.371.74-13.039 2.519-6.667 1.778-12.446 4.297-5.63 2.37-9.186 5.185-3.408 2.667-3.408 5.334 0 .741.89 1.334.888.593 1.925.593.445.444.445.74 0 .741-1.63.445t-4.149-1.926q-2.37-1.778-4.297-4.149-1.778-2.37-1.778-4.149 0-2.963 3.408-5.482 3.556-2.667 9.335-4.741 5.926-2.223 13.187-3.704 7.26-1.63 14.816-2.52 5.334-.74 12.15-1.036 6.816-.445 14.076-.445 6.667 0 13.039.445l.444-.445q-.889-.889-.889-2.074 0-1.926 1.926-3.704 2.075-1.926 4.445-3.408 2.371-1.63 3.704-2.667 1.334 0 3.705.74 2.37.593 4.148 1.779 1.926 1.185 1.926 2.963 0 .74-.296 1.63-.593 1.333-2.37 3.111-1.63 1.778-3.853 3.705 3.852.74 7.112 1.926 3.408 1.037 5.927 2.667 3.556 2.074 4.149 3.852.74 1.778.592 2.963-.148 1.186.593 1.334 2.519 4.149 2.519 8.15 0 4.74-3.408 8.445-3.26 3.556-8.298 5.926-4.889 2.371-10.075 3.704-5.186 1.334-8.89 1.63-2.37.148-6.667.89-4.297.74-8.298 1.63v.147q0 2.371.445 7.409.592 4.89 1.778 10.816 1.185 5.927 2.963 11.409 1.926 5.482 4.445 9.038 2.667 3.408 6.075 3.408 3.704 0 7.853-4.593 3.852-4.297 6.815-8.742 3.112-4.445 4.001-5.482 2.667-3.705 3.704-3.705.741 0-.148 2.52-.74 2.37-2.815 5.481-1.482 1.927-3.408 4.742-1.778 2.815-3.852 5.778-3.408 4.593-7.409 7.409-4 2.963-8.89 2.815z" fill="#fff"/></g></svg>